<?xml version="1.0" standalone="no"?>
<!DOCTYPE svg PUBLIC "-//W3C//DTD SVG 20010904//EN"
 "http://www.w3.org/TR/2001/REC-SVG-20010904/DTD/svg10.dtd">
<svg version="1.0" xmlns="http://www.w3.org/2000/svg"
 width="527.000000pt" height="160.000000pt" viewBox="0 0 527.000000 160.000000"
 preserveAspectRatio="xMidYMid meet">

<g transform="translate(0.000000,160.000000) scale(0.100000,-0.100000)"
fill="#000000" stroke="none">
<path d="M2253 1387 c-4 -7 -69 -71 -143 -142 -487 -467 -511 -489 -521 -474
-5 8 -9 44 -9 82 l0 67 -135 0 -135 0 0 -223 0 -224 -52 -44 -53 -44 -404 -5
-405 -5 -63 -78 c-35 -44 -63 -85 -63 -93 0 -12 85 -14 550 -14 l550 0 123
118 c68 64 229 216 358 337 128 121 280 264 336 319 l103 99 62 -54 c128 -110
647 -570 777 -688 l135 -121 938 0 c618 0 938 3 938 10 0 5 -30 48 -67 94
l-68 85 -371 0 -371 1 -139 125 c-214 193 -538 483 -617 553 -39 34 -78 62
-86 62 -17 0 -54 -33 -263 -238 l-136 -134 -164 147 c-89 81 -203 184 -252
229 -248 225 -298 266 -321 266 -13 0 -28 -6 -32 -13z m1274 -654 c48 -42 90
-79 93 -82 3 -4 55 -51 115 -106 61 -55 121 -112 133 -127 l24 -28 -230 0
-229 0 -79 73 c-44 39 -97 87 -118 105 l-38 33 73 68 c41 37 92 84 114 104 22
20 43 37 47 37 4 0 46 -34 95 -77z"/>
</g>
</svg>
